<svg width="1200" height="600" viewBox="0 0 1200 600" xmlns="http://www.w3.org/2000/svg" style="font-family: sans-serif;"><rect x="50" y="250" width="150" height="80" rx="16" fill="#ffffff" stroke="#e0e0e0" /><text x="125" y="295" font-size="18px" fill="#333333" font-weight="bold" text-anchor="middle">Login</text><rect x="275" y="250" width="150" height="80" rx="16" fill="#ffffff" stroke="#e0e0e0" /><text x="350" y="295" font-size="18px" fill="#333333" font-weight="bold" text-anchor="middle">Resume Upload</text><rect x="500" y="250" width="150" height="80" rx="16" fill="#ffffff" stroke="#e0e0e0" /><text x="575" y="295" font-size="18px" fill="#333333" font-weight="bold" text-anchor="middle">Dungeon Map</text><rect x="500" y="100" width="150" height="80" rx="16" fill="#ffffff" stroke="#e0e0e0" /><text x="575" y="145" font-size="18px" fill="#333333" font-weight="bold" text-anchor="middle">My Page</text><rect x="725" y="250" width="150" height="80" rx="16" fill="#ffffff" stroke="#e0e0e0" /><text x="800" y="295" font-size="18px" fill="#333333" font-weight="bold" text-anchor="middle">Interview Process</text><rect x="950" y="250" width="150" height="80" rx="16" fill="#ffffff" stroke="#e0e0e0" /><text x="1025" y="295" font-size="18px" fill="#333333" font-weight="bold" text-anchor="middle">Result Report</text><path d="M 200 290 L 265 290" stroke="#777" stroke-width="2" marker-end="url(#arrowhead)" fill="none"/><path d="M 125 330 L 125 400 L 575 400 L 575 340" stroke="#777" stroke-width="2" marker-end="url(#arrowhead)" stroke-dasharray="5,5" fill="none"/><path d="M 425 290 L 490 290" stroke="#777" stroke-width="2" marker-end="url(#arrowhead)" fill="none"/><path d="M 575 250 L 575 190" stroke="#777" stroke-width="2" marker-end="url(#arrowhead)" fill="none"/><path d="M 650 290 L 715 290" stroke="#777" stroke-width="2" marker-end="url(#arrowhead)" fill="none"/><path d="M 875 290 L 940 290" stroke="#777" stroke-width="2" marker-end="url(#arrowhead)" fill="none"/><path d="M 1025 250 L 1025 200 L 630 200 L 630 240" stroke="#777" stroke-width="2" marker-end="url(#arrowhead)" fill="none"/><defs><marker id="arrowhead" markerWidth="10" markerHeight="7" refX="9" refY="3.5" orient="auto"><polygon points="0 0, 10 3.5, 0 7" fill="#777"/></marker></defs></svg>